<svg width="28" height="26" viewBox="0 0 28 26" fill="none" xmlns="http://www.w3.org/2000/svg">
<!-- <g filter="url(#filter0_d)"> -->
<path d="M12.7235 18.3354L12.7228 18.3348C10.1868 16.0352 8.12248 14.1623 6.68607 12.4062C5.25541 10.6571 4.5 9.0848 4.5 7.3951C4.5 4.64998 6.64998 2.5 9.3951 2.5C10.9505 2.5 12.4512 3.22652 13.4286 4.37431L13.8093 4.82134L14.1899 4.37431C15.1674 3.22652 16.668 2.5 18.2234 2.5C20.9685 2.5 23.1185 4.64998 23.1185 7.3951C23.1185 9.08481 22.3631 10.6571 20.9324 12.4075C19.4981 14.1623 17.4379 16.0344 14.9073 18.334L14.8964 18.344L14.8953 18.345L13.8105 19.325L12.7235 18.3354Z" stroke="white"/>
</g>
<defs>
<filter id="filter0_d" x="0" y="0" width="27.6185" height="26" filterUnits="userSpaceOnUse" color-interpolation-filters="sRGB">
<feFlood flood-opacity="0" result="BackgroundImageFix"/>
<feColorMatrix in="SourceAlpha" type="matrix" values="0 0 0 0 0 0 0 0 0 0 0 0 0 0 0 0 0 0 127 0"/>
<feOffset dy="2"/>
<feGaussianBlur stdDeviation="2"/>
<feColorMatrix type="matrix" values="0 0 0 0 0.109804 0 0 0 0 0.109804 0 0 0 0 0.109804 0 0 0 0.25 0"/>
<feBlend mode="normal" in2="BackgroundImageFix" result="effect1_dropShadow"/>
<feBlend mode="normal" in="SourceGraphic" in2="effect1_dropShadow" result="shape"/>
</filter>
</defs>
</svg>
