<svg width="77" height="88" viewBox="0 0 77 88" fill="none" xmlns="http://www.w3.org/2000/svg">
<g filter="url(#filter0_d)">
<path d="M4 77C4 78.6569 5.34315 80 7 80H23.9457C25.6026 80 26.9457 78.6569 26.9457 77V3C26.9457 1.34315 25.6026 0 23.9457 0H7C5.34315 0 4 1.34315 4 3V77ZM52.8915 0C51.2346 0 49.8915 1.34315 49.8915 3V77C49.8915 78.6569 51.2346 80 52.8915 80H69.8372C71.4941 80 72.8372 78.6569 72.8372 77V3C72.8372 1.34315 71.4941 0 69.8372 0H52.8915Z" fill="url(#paint0_linear)"/>
</g>
<defs>
<filter id="filter0_d" x="0" y="0" width="76.8372" height="88" filterUnits="userSpaceOnUse" color-interpolation-filters="sRGB">
<feFlood flood-opacity="0" result="BackgroundImageFix"/>
<feColorMatrix in="SourceAlpha" type="matrix" values="0 0 0 0 0 0 0 0 0 0 0 0 0 0 0 0 0 0 127 0"/>
<feOffset dy="4"/>
<feGaussianBlur stdDeviation="2"/>
<feColorMatrix type="matrix" values="0 0 0 0 0 0 0 0 0 0 0 0 0 0 0 0 0 0 0.25 0"/>
<feBlend mode="normal" in2="BackgroundImageFix" result="effect1_dropShadow"/>
<feBlend mode="normal" in="SourceGraphic" in2="effect1_dropShadow" result="shape"/>
</filter>
<linearGradient id="paint0_linear" x1="38.4186" y1="0" x2="38.4186" y2="80" gradientUnits="userSpaceOnUse">
<stop stop-color="white"/>
<stop offset="1" stop-color="white" stop-opacity="0.75"/>
</linearGradient>
</defs>
</svg>
